<svg width="276" height="268" viewBox="0 0 276 268" fill="none" xmlns="http://www.w3.org/2000/svg">
<g filter="url(#filter0_f_34_18)">
<ellipse cx="138" cy="134" rx="88" ry="84" fill="white"/>
</g>
<g opacity="0.9" filter="url(#filter1_d_34_18)">
<ellipse cx="138" cy="136.5" rx="70" ry="70.5" fill="black"/>
</g>
<path d="M115.928 147.688C113.304 147.688 110.84 147.592 108.536 147.4C106.232 147.272 103.32 146.824 99.8 146.056C99.352 145.544 99 144.936 98.744 144.232C98.488 143.464 98.36 142.92 98.36 142.6C98.36 142.152 98.456 141.928 98.648 141.928C99.16 141.928 100.312 142.184 102.104 142.696C103.96 143.144 106.648 143.368 110.168 143.368C115.352 143.368 119.864 142.44 123.704 140.584C127.544 138.664 130.52 136.168 132.632 133.096C134.744 130.024 135.8 126.728 135.8 123.208C135.8 119.24 134.68 115.592 132.44 112.264C130.264 108.936 127.384 105.896 123.8 103.144C120.216 100.392 116.408 97.96 112.376 95.848C112.504 98.024 112.568 100.232 112.568 102.472C112.632 104.712 112.664 106.984 112.664 109.288C112.664 113.448 112.504 117.544 112.184 121.576C111.864 125.544 111.448 129.032 110.936 132.04C110.488 134.984 110.008 137 109.496 138.088C109.112 138.536 108.568 138.888 107.864 139.144C107.224 139.4 106.744 139.528 106.424 139.528C105.976 139.528 105.752 139.432 105.752 139.24C106.072 137.32 106.36 134.888 106.616 131.944C106.936 129 107.096 125.832 107.096 122.44C107.096 117.704 106.84 112.968 106.328 108.232C105.88 103.496 105.048 99.176 103.832 95.272C102.616 91.304 100.856 88.2 98.552 85.96L102.584 79.528C106.168 83.048 109.976 86.216 114.008 89.032C118.04 91.848 121.944 94.504 125.72 97C129.56 99.496 133.016 102.024 136.088 104.584C139.16 107.144 141.624 109.928 143.48 112.936C145.336 115.88 146.264 119.304 146.264 123.208C146.264 126.92 145.56 130.152 144.152 132.904C142.744 135.592 140.888 137.896 138.584 139.816C136.28 141.672 133.752 143.208 131 144.424C128.312 145.576 125.624 146.408 122.936 146.92C120.312 147.432 117.976 147.688 115.928 147.688Z" fill="white"/>
<path d="M152.616 178.344C152.36 178.344 152.008 178.264 151.56 178.104C151.112 177.976 150.76 177.752 150.504 177.432C149.64 175.672 148.76 173.592 147.864 171.192C147 168.76 146.168 166.152 145.368 163.368C144.6 160.584 143.928 157.752 143.352 154.872C142.808 151.96 142.424 149.16 142.2 146.472L146.376 144.504L147.624 145.272C147.56 146.072 147.512 146.888 147.48 147.72C147.448 148.52 147.432 149.32 147.432 150.12C147.432 154.504 147.864 158.728 148.728 162.792C149.592 166.856 150.712 170.936 152.088 175.032C152.344 173.336 152.696 171.464 153.144 169.416C153.592 167.336 154.12 165.176 154.728 162.936C155.336 160.696 155.992 158.488 156.696 156.312C157.432 154.104 158.184 152.056 158.952 150.168C158.856 149.528 158.776 148.904 158.712 148.296C158.648 147.688 158.6 147.08 158.568 146.472L162.744 144.504L163.992 145.272C163.928 146.072 163.88 146.888 163.848 147.72C163.816 148.52 163.8 149.32 163.8 150.12C163.8 154.504 164.232 158.728 165.096 162.792C165.96 166.856 167.08 170.936 168.456 175.032C168.68 173.4 169 171.576 169.416 169.56C169.864 167.512 170.376 165.384 170.952 163.176C171.56 160.968 172.2 158.792 172.872 156.648C173.576 154.472 174.296 152.424 175.032 150.504C175.8 148.552 176.552 146.856 177.288 145.416C177.576 145.16 177.96 144.952 178.44 144.792C178.952 144.6 179.352 144.504 179.64 144.504C179.768 144.504 179.832 144.584 179.832 144.744C179.832 145.032 179.576 145.88 179.064 147.288C178.552 148.696 177.896 150.696 177.096 153.288C176.328 155.848 175.544 159.016 174.744 162.792C173.976 166.568 173.32 170.984 172.776 176.04L168.984 178.344C168.728 178.344 168.376 178.264 167.928 178.104C167.48 177.976 167.128 177.752 166.872 177.432C166.072 175.768 165.24 173.8 164.376 171.528C163.544 169.256 162.744 166.808 161.976 164.184C161.24 161.528 160.584 158.84 160.008 156.12C159.368 158.552 158.712 161.432 158.04 164.76C157.4 168.056 156.856 171.816 156.408 176.04L152.616 178.344Z" fill="white"/>
<defs>
<filter id="filter0_f_34_18" x="0" y="0" width="276" height="268" filterUnits="userSpaceOnUse" color-interpolation-filters="sRGB">
<feFlood flood-opacity="0" result="BackgroundImageFix"/>
<feBlend mode="normal" in="SourceGraphic" in2="BackgroundImageFix" result="shape"/>
<feGaussianBlur stdDeviation="25" result="effect1_foregroundBlur_34_18"/>
</filter>
<filter id="filter1_d_34_18" x="68" y="66" width="140" height="141" filterUnits="userSpaceOnUse" color-interpolation-filters="sRGB">
<feFlood flood-opacity="0" result="BackgroundImageFix"/>
<feColorMatrix in="SourceAlpha" type="matrix" values="0 0 0 0 0 0 0 0 0 0 0 0 0 0 0 0 0 0 127 0" result="hardAlpha"/>
<feMorphology radius="300" operator="erode" in="SourceAlpha" result="effect1_dropShadow_34_18"/>
<feOffset dy="4"/>
<feComposite in2="hardAlpha" operator="out"/>
<feColorMatrix type="matrix" values="0 0 0 0 0 0 0 0 0 0 0 0 0 0 0 0 0 0 0.25 0"/>
<feBlend mode="normal" in2="BackgroundImageFix" result="effect1_dropShadow_34_18"/>
<feBlend mode="normal" in="SourceGraphic" in2="effect1_dropShadow_34_18" result="shape"/>
</filter>
</defs>
</svg>
